<?xml version="1.0" encoding="utf-8"?>
<!-- Generator: Adobe Illustrator 26.0.3, SVG Export Plug-In . SVG Version: 6.00 Build 0)  -->
<svg version="1.0" id="katman_1" xmlns="http://www.w3.org/2000/svg" xmlns:xlink="http://www.w3.org/1999/xlink" x="0px" y="0px"
	 viewBox="0 0 800 600" style="enable-background:new 0 0 800 600;" xml:space="preserve">
<style type="text/css">
	.st0{fill:#FFFFFF;}
	.st1{fill:#515151;}
</style>
<rect x="251.4" y="179.8" class="st0" width="305.9" height="245.7"/>
<path class="st1" d="M499.1,269.6c1.7,0,3-1.3,3.1-2.9c0,0,0-0.1,0-0.1v-0.5c0-1.7-1.4-3.1-3.1-3c-1.7,0-3,1.4-3,3v0.5
	C496,268.3,497.4,269.6,499.1,269.6C499.1,269.6,499.1,269.6,499.1,269.6z M497.5,264.3h1.9c0.7-0.1,1.3,0.4,1.4,1.1
	c0,0.1,0,0.1,0,0.2c0.1,0.5-0.3,1.1-0.8,1.3l0.9,1.6h-1.1l-0.8-1.5h-0.6v1.5h-1L497.5,264.3z M584.7,159.1L429,69
	c-18.2-10.3-40.4-10.3-58.6,0L215,159.1c-18,10.5-29.2,29.7-29.3,50.6v179.5c-0.1,20.9,11.1,40.3,29.3,50.6l155.3,90.1
	c18.1,10.6,40.5,10.6,58.6,0l155.7-89.8c18-10.5,29.2-29.7,29.3-50.6V209.7C614.1,188.7,602.9,169.4,584.7,159.1z M499.1,262.2
	c2.3-0.1,4.2,1.7,4.3,4c0.1,2.3-1.7,4.2-4,4.3s-4.2-1.7-4.3-4c0,0,0-0.1,0-0.1C495,264.1,496.8,262.3,499.1,262.2
	C499,262.2,499.1,262.2,499.1,262.2z M459.1,194.4h30.3v5.3h-32.1L459.1,194.4z M455.6,204.5l33.8,0v5.3h-35.6L455.6,204.5z
	 M478.8,244.8v5.3H463v-5.3H478.8z M463,240v-5.3h15.9v5.3L463,240z M489.4,254.9v5.3H463v-5.3L489.4,254.9z M452.1,214.6h26.7v5.3
	h-28.5L452.1,214.6z M444,219.8h-28.5v-5.3h26.7L444,219.8z M404.8,194.4h30.3l1.8,5.3h-32.1V194.4z M404.8,204.5h33.8l1.8,5.3
	h-35.6V204.5z M415.4,240v-5.3h15.9v5.3H415.4z M431.3,244.8v5.3h-15.9v-5.3L431.3,244.8z M404.8,254.9h26.4v5.3h-26.4V254.9z
	 M404.8,265h26.4v5.3h-26.4V265z M352,240v-5.3h41.4c1.8,1.5,3.3,3.3,4.4,5.3L352,240z M367.8,244.8v5.3H352v-5.3H367.8z
	 M397.8,224.7c-1.2,2-2.6,3.8-4.4,5.3H352v-5.3H397.8z M352,219.8v-5.3h15.9v5.3L352,219.8z M382.7,244.8h17.1
	c0.5,1.7,0.7,3.5,0.7,5.3h-17.8V244.8z M399.8,219.8h-17.1v-5.3h17.8C400.5,216.4,400.3,218.1,399.8,219.8z M341.4,194.4h38.9
	c5,0,9.9,1.9,13.6,5.3h-52.5L341.4,194.4z M341.4,204.5h56.4c1,1.7,1.7,3.4,2.1,5.3h-58.5L341.4,204.5z M341.4,254.9h58.5
	c-0.5,1.9-1.2,3.6-2.1,5.3h-56.4L341.4,254.9z M299.1,194.4h37v5.3h-37V194.4z M299.1,204.5h37v5.3h-37V204.5z M309.7,240v-5.3h15.9
	v5.3L309.7,240z M325.6,244.8v5.3h-15.9v-5.3H325.6z M309.7,229.9v-5.3h15.9v5.3H309.7z M309.7,219.8v-5.3h15.9v5.3L309.7,219.8z
	 M299.1,254.9h37v5.3h-37V254.9z M299.1,265h37v5.3h-37V265z M313.8,348.5L283.3,388h30.5v14.2h-57v-8l32-41h-28.7v-14.5h53.7
	L313.8,348.5z M338.5,403.3h-9.1l26.5-91.1h8.7L338.5,403.3z M341.4,270.3V265h52.5c-3.7,3.4-8.6,5.3-13.6,5.3L341.4,270.3z
	 M446,391.7c-8,8.7-19.4,13.5-31.2,13.1c-11.9,0.3-23.4-4.4-31.6-13.1c-8.4-8.7-12.3-20-12.3-34.1s4-25.8,12.3-34.1
	c8.1-8.8,19.7-13.5,31.6-13.1c11.8-0.4,23.2,4.4,31.2,13.1c8.4,9.4,12.8,21.6,12.3,34.1C458.3,371.7,454.3,383.3,446,391.7
	L446,391.7z M443.6,260.2l-1.9-5.3h10.8l-1.9,5.3H443.6z M448.9,265l-1.8,5.3l-1.8-5.3H448.9z M440,250.1l-1.9-5.3H456l-1.9,5.3H440
	z M457.7,240h-21.2l-1.9-5.3h24.9L457.7,240z M433,229.9l-1.7-4.9v4.9h-15.9v-5.3h30.2l1.5,4.3l1.5-4.3h30.2v5.3H463v-4.9l-1.7,4.9
	H433z M463,265h26.4v5.3H463V265z M533.1,397.5c-7.1,5-15.6,7.6-24.3,7.3c-12.7,0-22.5-2.9-28.7-8.7c-6.4-5.6-10.1-13.7-10.2-22.2
	h11.6c0.3,6.1,3.4,11.7,8.4,15.3c5.5,3.3,11.8,4.9,18.2,4.7c5.7,0.2,11.4-1.1,16.3-4c3.8-2.5,6.2-6.7,6.2-11.3
	c0.3-4.6-2.3-9-6.5-10.9c-7.1-3-14.6-5.3-22.1-6.9c-8.1-1.3-15.8-4.4-22.5-9.1c-4.6-3.8-7.2-9.6-6.9-15.6
	c-0.1-7.1,3.1-13.8,8.7-18.2c6.8-5.1,15.1-7.6,23.6-7.3c8.9-0.3,17.7,2.2,25.1,7.3c6.3,4.9,10.1,12.4,10.2,20.3h-11.6
	c-1.1-10.9-8.7-16.7-22.5-16.7c-5.5-0.4-10.9,0.9-15.6,3.6c-3.5,2.2-5.5,6.1-5.4,10.2c-0.2,3.5,1.5,6.8,4.4,8.7
	c5.3,2.6,10.9,4.5,16.7,5.4c6.5,1.4,13,3.2,19.2,5.4c4.6,1.7,8.9,4.5,12.3,8c3.5,4.2,5.3,9.5,5.1,14.9
	C542.7,385.5,539.2,392.8,533.1,397.5L533.1,397.5z M414.7,320.5c-8.6-0.2-16.8,3.4-22.5,9.8c-5.8,6.5-8.7,15.6-8.7,27.2
	c0,11.6,2.9,20.7,8.7,27.2c5.5,6.4,13.7,10,22.1,9.8c8.6,0.2,16.8-3.4,22.5-9.8c5.8-6.5,8.7-15.6,8.7-27.2c0-11.6-2.9-20.7-8.7-27.2
	C431.4,323.9,423.2,320.3,414.7,320.5L414.7,320.5z M499.8,265.8v-0.3c0-0.3-0.2-0.4-0.5-0.4h-0.8v1.2h0.8
	C499.6,266.3,499.8,266.1,499.8,265.8L499.8,265.8z"/>
</svg>
